<svg width="1140" height="421" viewBox="0 0 1140 421" fill="none" xmlns="http://www.w3.org/2000/svg">
<g clip-path="url(#clip0_1446_103)">
<rect width="1140" height="421" fill="#F20C30"/>
<g filter="url(#filter0_d_1446_103)">
<rect width="560.577" height="89.0129" rx="44.5065" transform="matrix(-0.798443 -0.60207 0.541773 -0.840525 309.154 171.324)" fill="#333333"/>
<rect width="560.577" height="89.0129" rx="44.5065" transform="matrix(-0.798443 -0.60207 0.541773 -0.840525 409.799 368.641)" fill="#333333"/>
<rect width="560.577" height="89.0129" rx="44.5065" transform="matrix(-0.798443 -0.60207 0.541773 -0.840525 245.589 368.641)" fill="#333333"/>
</g>
<g filter="url(#filter1_d_1446_103)">
<rect width="560.577" height="89.0129" rx="44.5065" transform="matrix(-0.798443 -0.60207 0.541773 -0.840525 1227.15 432.324)" fill="#333333"/>
<rect width="560.577" height="89.0129" rx="44.5065" transform="matrix(-0.798443 -0.60207 0.541773 -0.840525 1327.8 629.641)" fill="#333333"/>
<rect width="560.577" height="89.0129" rx="44.5065" transform="matrix(-0.798443 -0.60207 0.541773 -0.840525 1163.59 629.641)" fill="#333333"/>
</g>
</g>
<defs>
<filter id="filter0_d_1446_103" x="-201.3" y="-238.814" width="666.624" height="613.27" filterUnits="userSpaceOnUse" color-interpolation-filters="sRGB">
<feFlood flood-opacity="0" result="BackgroundImageFix"/>
<feColorMatrix in="SourceAlpha" type="matrix" values="0 0 0 0 0 0 0 0 0 0 0 0 0 0 0 0 0 0 127 0" result="hardAlpha"/>
<feOffset dx="4" dy="4"/>
<feGaussianBlur stdDeviation="10"/>
<feColorMatrix type="matrix" values="0 0 0 0 0 0 0 0 0 0 0 0 0 0 0 0 0 0 0.25 0"/>
<feBlend mode="normal" in2="BackgroundImageFix" result="effect1_dropShadow_1446_103"/>
<feBlend mode="normal" in="SourceGraphic" in2="effect1_dropShadow_1446_103" result="shape"/>
</filter>
<filter id="filter1_d_1446_103" x="716.7" y="22.1855" width="666.624" height="613.27" filterUnits="userSpaceOnUse" color-interpolation-filters="sRGB">
<feFlood flood-opacity="0" result="BackgroundImageFix"/>
<feColorMatrix in="SourceAlpha" type="matrix" values="0 0 0 0 0 0 0 0 0 0 0 0 0 0 0 0 0 0 127 0" result="hardAlpha"/>
<feOffset dx="4" dy="4"/>
<feGaussianBlur stdDeviation="10"/>
<feColorMatrix type="matrix" values="0 0 0 0 0 0 0 0 0 0 0 0 0 0 0 0 0 0 0.25 0"/>
<feBlend mode="normal" in2="BackgroundImageFix" result="effect1_dropShadow_1446_103"/>
<feBlend mode="normal" in="SourceGraphic" in2="effect1_dropShadow_1446_103" result="shape"/>
</filter>
<clipPath id="clip0_1446_103">
<rect width="1140" height="421" fill="white"/>
</clipPath>
</defs>
</svg>
