<svg width="375" height="375" viewBox="0 0 375 375" fill="none" xmlns="http://www.w3.org/2000/svg">
<g clip-path="url(#clip0_1451_120)">
<rect width="375" height="375" fill="#F20C30"/>
<g filter="url(#filter0_d_1451_120)">
<rect width="423.309" height="67.2165" rx="33.6082" transform="matrix(-0.798443 -0.60207 0.541773 -0.840525 99.9883 58.3589)" fill="#333333"/>
<rect width="423.309" height="67.2165" rx="33.6082" transform="matrix(-0.798443 -0.60207 0.541773 -0.840525 175.988 207.359)" fill="#333333"/>
<rect width="423.309" height="67.2165" rx="33.6082" transform="matrix(-0.798443 -0.60207 0.541773 -0.840525 51.9883 207.359)" fill="#333333"/>
</g>
<g filter="url(#filter1_d_1451_120)">
<rect width="423.309" height="67.2165" rx="33.6082" transform="matrix(-0.798443 -0.60207 0.541773 -0.840525 558.988 399.359)" fill="#333333"/>
<rect width="423.309" height="67.2165" rx="33.6082" transform="matrix(-0.798443 -0.60207 0.541773 -0.840525 634.988 548.359)" fill="#333333"/>
<rect width="423.309" height="67.2165" rx="33.6082" transform="matrix(-0.798443 -0.60207 0.541773 -0.840525 510.988 548.359)" fill="#333333"/>
</g>
</g>
<defs>
<filter id="filter0_d_1451_120" x="-289.39" y="-255.268" width="513.183" height="472.894" filterUnits="userSpaceOnUse" color-interpolation-filters="sRGB">
<feFlood flood-opacity="0" result="BackgroundImageFix"/>
<feColorMatrix in="SourceAlpha" type="matrix" values="0 0 0 0 0 0 0 0 0 0 0 0 0 0 0 0 0 0 127 0" result="hardAlpha"/>
<feOffset dx="4" dy="4"/>
<feGaussianBlur stdDeviation="10"/>
<feColorMatrix type="matrix" values="0 0 0 0 0 0 0 0 0 0 0 0 0 0 0 0 0 0 0.25 0"/>
<feBlend mode="normal" in2="BackgroundImageFix" result="effect1_dropShadow_1451_120"/>
<feBlend mode="normal" in="SourceGraphic" in2="effect1_dropShadow_1451_120" result="shape"/>
</filter>
<filter id="filter1_d_1451_120" x="169.61" y="85.7324" width="513.183" height="472.894" filterUnits="userSpaceOnUse" color-interpolation-filters="sRGB">
<feFlood flood-opacity="0" result="BackgroundImageFix"/>
<feColorMatrix in="SourceAlpha" type="matrix" values="0 0 0 0 0 0 0 0 0 0 0 0 0 0 0 0 0 0 127 0" result="hardAlpha"/>
<feOffset dx="4" dy="4"/>
<feGaussianBlur stdDeviation="10"/>
<feColorMatrix type="matrix" values="0 0 0 0 0 0 0 0 0 0 0 0 0 0 0 0 0 0 0.25 0"/>
<feBlend mode="normal" in2="BackgroundImageFix" result="effect1_dropShadow_1451_120"/>
<feBlend mode="normal" in="SourceGraphic" in2="effect1_dropShadow_1451_120" result="shape"/>
</filter>
<clipPath id="clip0_1451_120">
<rect width="375" height="375" fill="white"/>
</clipPath>
</defs>
</svg>
